<svg data-v-423bf9ae="" xmlns="http://www.w3.org/2000/svg" viewBox="0 0 363.87524807390713 185" class="iconAbove"><g data-v-423bf9ae="" id="e2fdad41-a575-409e-837d-972f85ed2a9e" fill="white" transform="matrix(4.454342896107062,0,0,4.454342896107062,-4.98886495863735,102.774803139614)"><path d="M6.43 5.31L2.23 5.31C1.68 5.31 1.41 5.38 1.12 5.64C1.27 6.09 1.32 6.59 1.32 7.15L1.32 14.49C1.32 14.92 1.62 15.19 2.06 15.19C2.42 15.19 2.67 15.01 2.80 14.90C2.63 14.45 2.60 13.89 2.60 13.34L2.59 10.36L5.92 10.36C5.98 10.15 5.99 9.88 5.92 9.62L2.59 9.62L2.58 5.99C3.89 6.02 5.12 6.17 6.29 6.43C6.65 6.27 6.80 5.31 6.43 5.31ZM14.18 13.92C14.07 14.10 13.87 14.18 13.73 14.18C13.41 14.18 13.24 13.94 13.24 13.44L13.24 10.72C13.24 8.64 12.35 7.70 10.39 7.70C8.71 7.70 7.64 8.29 7.64 9.39C7.64 10.04 8.06 10.64 8.76 10.64C9.03 10.64 9.32 10.56 9.51 10.35C9.07 10.18 8.92 9.72 8.92 9.35C8.92 8.50 9.62 8.23 10.28 8.23C11.49 8.23 11.94 9.04 11.94 10.65L11.94 11.00C11.27 10.98 10.44 11.05 9.66 11.26C8.36 11.62 7.32 12.36 7.32 13.55C7.32 14.55 7.99 15.18 9.09 15.18C10.37 15.18 11.44 14.34 12.01 13.09L12.01 13.31C12.01 14.62 12.46 15.16 13.30 15.16C13.89 15.16 14.34 14.83 14.34 14.39C14.34 14.25 14.29 14.08 14.18 13.92ZM9.69 14.31C8.97 14.34 8.71 13.82 8.71 13.27C8.71 12.57 9.17 12.07 9.93 11.77C10.47 11.54 11.34 11.45 11.98 11.48C11.96 12.96 10.71 14.27 9.69 14.31ZM25.55 13.34L25.55 10.60C25.55 8.69 24.88 7.70 23.42 7.70C22.32 7.70 21.50 8.37 21.15 9.45C20.93 8.32 20.30 7.70 19.14 7.70C18.03 7.70 17.25 8.39 16.88 9.49L16.88 9.35C16.88 8.26 16.41 7.71 15.64 7.71C15.11 7.71 14.71 8.04 14.71 8.50C14.71 8.65 14.76 8.81 14.87 8.96C14.95 8.78 15.13 8.69 15.30 8.69C15.60 8.69 15.76 8.95 15.76 9.44L15.78 14.43C15.78 14.91 16.09 15.19 16.51 15.19C16.90 15.19 17.12 15.02 17.23 14.91C17.02 14.34 17.02 13.85 17.02 11.73C17.02 9.30 17.92 8.37 18.75 8.37C19.75 8.37 20.03 9.21 20.03 10.77L20.05 14.49C20.05 14.92 20.34 15.19 20.75 15.19C21.08 15.19 21.29 15.05 21.46 14.90C21.31 14.45 21.27 13.82 21.27 13.34L21.27 11.51C21.31 9.27 22.25 8.37 23.04 8.37C24.05 8.37 24.29 9.34 24.29 10.77L24.29 14.49C24.29 14.92 24.60 15.19 25.02 15.19C25.35 15.19 25.58 15.05 25.75 14.90C25.59 14.45 25.55 13.82 25.55 13.34ZM28.39 6.69C28.84 6.69 29.20 6.33 29.20 5.88C29.20 5.42 28.84 5.05 28.39 5.05C27.93 5.05 27.57 5.42 27.57 5.88C27.57 6.33 27.93 6.69 28.39 6.69ZM29.08 13.34L29.06 8.39C29.06 7.95 28.77 7.70 28.35 7.70C27.99 7.70 27.75 7.88 27.62 7.98C27.79 8.43 27.82 9.00 27.82 9.55L27.83 14.49C27.83 14.92 28.14 15.19 28.55 15.19C28.91 15.19 29.16 15.01 29.27 14.90C29.11 14.45 29.08 13.89 29.08 13.34ZM32.75 15.16C33.31 15.16 33.80 14.85 33.80 14.39C33.80 14.25 33.75 14.08 33.63 13.92C33.54 14.10 33.32 14.18 33.14 14.18C32.79 14.18 32.61 13.93 32.61 13.44L32.62 7.81C32.62 6.43 32.63 5.67 32.82 5.08C32.70 4.97 32.45 4.79 32.09 4.79C31.65 4.79 31.35 5.04 31.35 5.49L31.35 13.52C31.35 14.55 31.86 15.16 32.75 15.16ZM40.78 8.46C40.78 7.98 40.46 7.70 40.05 7.70C39.69 7.70 39.44 7.88 39.33 7.98C39.54 8.55 39.54 9.04 39.54 11.16C39.54 13.54 38.61 14.46 37.62 14.46C36.71 14.46 36.39 13.71 36.39 12.05L36.39 8.40C36.39 7.95 36.08 7.70 35.66 7.70C35.32 7.70 35.10 7.85 34.93 7.99C35.08 8.44 35.13 9.04 35.13 9.55L35.13 12.22C35.13 14.36 35.85 15.13 37.25 15.13C38.47 15.13 39.28 14.48 39.66 13.36C39.63 13.73 39.61 14.13 39.61 14.39C39.61 16.56 38.92 17.77 37.44 17.77C36.78 17.77 36.16 17.44 36.16 16.72C36.16 16.52 36.25 16.23 36.51 16.04C36.40 15.89 36.18 15.81 35.92 15.81C35.35 15.81 34.99 16.23 34.99 16.76C34.99 17.89 36.20 18.26 37.44 18.26C39.37 18.26 40.80 17.26 40.80 14.32ZM49.53 15.20C51.77 15.20 52.88 13.59 52.88 11.66C52.88 10.14 52.18 9.56 51.39 9.56C51.00 9.56 50.67 9.70 50.57 10.01C51.28 10.21 51.56 10.91 51.56 11.93C51.56 12.99 51.30 14.66 49.59 14.66C47.85 14.66 47.01 13.15 47.01 10.16C47.01 7.18 47.85 5.67 49.60 5.67C50.54 5.67 51.20 6.23 51.34 7.31C52.01 7.34 52.37 6.97 52.37 6.57C52.37 5.75 51.02 5.12 49.57 5.12C47.05 5.12 45.60 6.92 45.60 10.18C45.60 13.43 47.01 15.20 49.53 15.20ZM61.03 14C60.93 14.17 60.76 14.20 60.65 14.20C60.38 14.20 60.27 14 60.27 13.48L60.26 8.46C60.26 7.98 59.93 7.70 59.53 7.70C59.16 7.70 58.91 7.88 58.80 7.98C59.01 8.57 59.01 9.06 59.01 11.23C59.01 13.61 58.06 14.55 57.18 14.55C56.18 14.55 55.86 13.85 55.86 12.12L55.86 8.40C55.86 7.95 55.55 7.70 55.13 7.70C54.80 7.70 54.57 7.85 54.40 7.99C54.56 8.44 54.60 9.07 54.60 9.55L54.60 12.29C54.60 14.43 55.30 15.22 56.80 15.22C57.92 15.22 58.76 14.59 59.14 13.48L59.14 13.66C59.14 14.67 59.56 15.16 60.30 15.16C60.86 15.16 61.18 14.88 61.18 14.46C61.18 14.31 61.14 14.15 61.03 14ZM68.98 13.92C68.87 14.10 68.67 14.18 68.53 14.18C68.21 14.18 68.04 13.94 68.04 13.44L68.04 10.72C68.04 8.64 67.14 7.70 65.18 7.70C63.50 7.70 62.44 8.29 62.44 9.39C62.44 10.04 62.86 10.64 63.56 10.64C63.83 10.64 64.12 10.56 64.30 10.35C63.87 10.18 63.71 9.72 63.71 9.35C63.71 8.50 64.41 8.23 65.07 8.23C66.29 8.23 66.74 9.04 66.74 10.65L66.74 11.00C66.07 10.98 65.24 11.05 64.46 11.26C63.15 11.62 62.12 12.36 62.12 13.55C62.12 14.55 62.79 15.18 63.88 15.18C65.17 15.18 66.23 14.34 66.81 13.09L66.81 13.31C66.81 14.62 67.26 15.16 68.10 15.16C68.68 15.16 69.13 14.83 69.13 14.39C69.13 14.25 69.09 14.08 68.98 13.92ZM64.48 14.31C63.77 14.34 63.50 13.82 63.50 13.27C63.50 12.57 63.97 12.07 64.72 11.77C65.27 11.54 66.14 11.45 66.78 11.48C66.75 12.96 65.51 14.27 64.48 14.31ZM73.42 7.70C72.52 7.70 71.88 8.25 71.55 9.28C71.57 8.23 71.13 7.71 70.41 7.71C69.85 7.71 69.51 8.01 69.51 8.43C69.51 8.60 69.57 8.74 69.68 8.89C69.76 8.72 69.94 8.69 70.04 8.69C70.31 8.69 70.43 8.89 70.43 9.41L70.43 14.41C70.43 14.88 70.77 15.16 71.16 15.16C71.53 15.15 71.79 14.98 71.90 14.87C71.69 14.29 71.69 13.80 71.69 11.66C71.69 9.30 72.37 8.37 73.09 8.37C73.58 8.37 73.86 8.64 73.86 9.21C73.86 9.53 73.82 9.77 73.60 10.11C73.71 10.23 73.91 10.30 74.17 10.29C74.65 10.26 75.05 9.83 75.05 9.18C75.05 8.25 74.37 7.70 73.42 7.70ZM82.66 13.96C82.56 14.14 82.39 14.17 82.28 14.17C82.00 14.17 81.83 13.94 81.83 13.44L81.84 5.49C81.84 5.04 81.52 4.79 81.10 4.79C80.74 4.79 80.49 4.97 80.37 5.08C80.54 5.68 80.58 6.44 80.58 7.14L80.58 8.76C80.30 8.09 79.65 7.70 78.71 7.70C76.80 7.70 75.75 9.21 75.75 11.77C75.75 13.41 76.24 15.20 78.18 15.20C79.41 15.20 80.22 14.48 80.64 13.30C80.67 14.45 81.05 15.13 81.87 15.13C82.40 15.13 82.81 14.85 82.81 14.43C82.81 14.29 82.77 14.13 82.66 13.96ZM78.53 14.45C77.32 14.45 77.11 13.16 77.11 11.73C77.11 9.56 77.74 8.41 78.95 8.41C80.29 8.41 80.57 9.60 80.57 10.72C80.57 12.71 79.84 14.45 78.53 14.45Z"></path></g><g data-v-423bf9ae="" id="5b238e5c-1cf2-4bec-ae4a-0248cc18515d" transform="matrix(1.1111111111111112,0,0,1.1111111111111112,129.25797730611845,0.44444444444444287)" stroke="none" fill="white"><path d="M47.47 9.129c17 0 32.056 9.524 38.317 14.11-.295 13.542-2.962 40.287-13.298 52.114-7.294 8.348-19.778 13.277-25.021 15.072-5.247-1.795-17.729-6.727-25.02-15.069-10.34-11.83-13.007-38.577-13.299-52.115C15.426 18.646 30.474 9.129 47.47 9.129m0-9.129C21.26 0 .01 18.817.01 18.817s-.918 43.68 15.565 62.542C26.932 94.359 47.468 100 47.468 100h.002s20.536-5.641 31.895-18.639c16.481-18.859 15.562-62.542 15.562-62.542S73.677 0 47.47 0"></path></g></svg>